<svg width="30" height="30" viewBox="0 0 30 30" fill="none" xmlns="http://www.w3.org/2000/svg">
<path d="M15.8324 24.8013C18.9583 24.1747 23 21.926 23 16.1112C23 10.8196 19.1267 7.29593 16.3415 5.67685C15.7235 5.31757 15 5.79006 15 6.50492V8.3334C15 9.77526 14.3938 12.4071 12.7093 13.5018C11.8493 14.0607 10.9205 13.2242 10.816 12.2039L10.7302 11.366C10.6304 10.392 9.63841 9.80075 8.85996 10.3946C7.46147 11.4614 6 13.3296 6 16.1112C6 23.2223 11.2889 25.0001 13.9333 25.0001C14.0871 25.0001 14.2488 24.9955 14.4171 24.9858C13.1113 24.8742 11 24.064 11 21.4442C11 19.3949 12.4951 18.0085 13.631 17.3346C13.9365 17.1533 14.2941 17.3887 14.2941 17.7439V18.3331C14.2941 18.784 14.4685 19.4889 14.8836 19.9714C15.3534 20.5174 16.0429 19.9454 16.0985 19.2273C16.1161 19.0008 16.3439 18.8564 16.5401 18.9711C17.1814 19.3459 18 20.1465 18 21.4442C18 23.4922 16.871 24.4343 15.8324 24.8013Z" fill="#1C274C"/>
</svg>
